<svg width="19" height="18" viewBox="0 0 19 18" fill="none" xmlns="http://www.w3.org/2000/svg">
<g clip-path="url(#clip0_105_897)">
<path d="M16.0883 9.40082L11.0258 14.4633C10.9183 14.5673 10.7746 14.6254 10.625 14.6254C10.4754 14.6254 10.3317 14.5673 10.2242 14.4633C10.1186 14.3567 10.0593 14.2126 10.0593 14.0625C10.0593 13.9124 10.1186 13.7684 10.2242 13.6618L14.3305 9.56254H3.3125C3.16332 9.56254 3.02024 9.50328 2.91475 9.39779C2.80926 9.2923 2.75 9.14922 2.75 9.00004C2.75 8.85086 2.80926 8.70778 2.91475 8.60229C3.02024 8.4968 3.16332 8.43754 3.3125 8.43754H14.3305L10.2242 4.33832C10.1345 4.22903 10.0887 4.09028 10.0956 3.94906C10.1026 3.80785 10.1618 3.67426 10.2617 3.57428C10.3617 3.47431 10.4953 3.41509 10.6365 3.40816C10.7777 3.40122 10.9165 3.44706 11.0258 3.53676L16.0883 8.59926C16.1939 8.7059 16.2532 8.84994 16.2532 9.00004C16.2532 9.15014 16.1939 9.29417 16.0883 9.40082V9.40082Z" fill="white"/>
</g>
<defs>
<clipPath id="clip0_105_897">
<rect width="18" height="18" fill="white" transform="translate(0.5)"/>
</clipPath>
</defs>
</svg>
