<svg width="32" height="32" viewBox="0 0 32 32" fill="none" xmlns="http://www.w3.org/2000/svg">
<g clip-path="url(#clip0_107_462)">
<path d="M31.4125 13.3999L28.3375 7.51245C28.0947 7.049 27.6799 6.69915 27.1822 6.53791C26.6845 6.37667 26.1434 6.4169 25.675 6.64995L22.7625 8.11245H20.7125L16.5875 6.23745C16.1539 6.04838 15.6688 6.0131 15.2125 6.13745L9.12496 7.91245L6.32496 6.51245C5.85448 6.28361 5.31339 6.24698 4.81636 6.41033C4.31934 6.57367 3.90546 6.92414 3.66246 7.38745L0.587456 13.2749C0.463822 13.5093 0.388 13.766 0.364396 14.0299C0.340791 14.2938 0.369875 14.5598 0.449956 14.8124C0.619348 15.3223 0.983246 15.7446 1.46246 15.9874L4.46246 17.4874L11.2125 22.7624C11.4326 22.9373 11.6887 23.0611 11.9625 23.1249L19.2125 24.9374C19.3677 24.9775 19.5272 24.9985 19.6875 24.9999C20.2205 24.9956 20.7312 24.7851 21.1125 24.4124L25.7125 19.8124H25.725C25.725 19.7999 25.7375 19.7999 25.7375 19.7874H25.7625L27.625 17.5749L30.5375 16.1124C30.7755 15.9965 30.9879 15.8338 31.1618 15.6341C31.3358 15.4344 31.4678 15.2017 31.55 14.9499C31.6304 14.6953 31.6596 14.4272 31.636 14.1612C31.6124 13.8952 31.5365 13.6365 31.4125 13.3999V13.3999ZM24.8375 17.7499L20.0875 14.2999C19.9142 14.1749 19.7054 14.1086 19.4916 14.1108C19.2779 14.1131 19.0706 14.1837 18.9 14.3124L17.3 15.5124C16.7783 15.8962 16.1476 16.1032 15.5 16.1032C14.8523 16.1032 14.2216 15.8962 13.7 15.5124L13.025 14.9999L17.9125 10.1125H22.4L25.8 16.6374L24.8375 17.7499ZM5.43746 8.31245L7.63746 9.41245L4.56246 15.2999L2.36246 14.1999L5.43746 8.31245ZM19.6875 22.9999L12.45 21.1874L6.27496 16.3624L9.67496 9.83745L15.7625 8.06245L16.725 8.49995L16.5 8.68745L11.6125 13.5874C11.4081 13.7889 11.2498 14.0322 11.1485 14.3007C11.0471 14.5691 11.0051 14.8564 11.0252 15.1426C11.0454 15.4289 11.1274 15.7073 11.2654 15.9589C11.4035 16.2105 11.5944 16.4292 11.825 16.5999L12.5 17.1124C13.3671 17.7577 14.4191 18.1062 15.5 18.1062C16.5808 18.1062 17.6329 17.7577 18.5 17.1124L19.5125 16.3499L23.4625 19.2249L19.6875 22.9999ZM29.6375 14.3249L27.4375 15.4374L24.3625 9.54995L26.5625 8.43745L29.6375 14.3249ZM14.975 26.8499C14.9197 27.067 14.794 27.2596 14.6175 27.3975C14.4411 27.5355 14.2239 27.6111 14 27.6124C13.9193 27.6122 13.8392 27.5995 13.7625 27.5749L9.98746 26.6374C9.68126 26.5601 9.39825 26.41 9.16246 26.1999L6.34996 23.7499C6.25146 23.6646 6.17075 23.5607 6.11242 23.4441C6.05409 23.3276 6.01929 23.2007 6.01001 23.0707C6.00072 22.9407 6.01713 22.8101 6.0583 22.6864C6.09947 22.5628 6.1646 22.4484 6.24996 22.3499C6.33532 22.2515 6.43924 22.1707 6.55579 22.1124C6.67234 22.0541 6.79924 22.0193 6.92925 22.01C7.05925 22.0007 7.18981 22.0171 7.31347 22.0583C7.43712 22.0995 7.55146 22.1646 7.64996 22.2499L10.475 24.6999L14.2375 25.6374C14.4948 25.7025 14.7163 25.8661 14.8542 26.0929C14.9921 26.3196 15.0355 26.5915 14.975 26.8499V26.8499Z" fill="white"/>
</g>
<defs>
<clipPath id="clip0_107_462">
<rect width="32" height="32" fill="white"/>
</clipPath>
</defs>
</svg>
