<svg width="19" height="18" viewBox="0 0 19 18" fill="none" xmlns="http://www.w3.org/2000/svg">
<g clip-path="url(#clip0_103_579)">
<path d="M16.328 9.40082L11.2655 14.4633C11.158 14.5673 11.0143 14.6254 10.8647 14.6254C10.7152 14.6254 10.5715 14.5673 10.464 14.4633C10.3583 14.3567 10.2991 14.2126 10.2991 14.0625C10.2991 13.9124 10.3583 13.7684 10.464 13.6618L14.5702 9.56254H3.55225C3.40306 9.56254 3.25999 9.50328 3.1545 9.39779C3.04901 9.2923 2.98975 9.14922 2.98975 9.00004C2.98975 8.85086 3.04901 8.70778 3.1545 8.60229C3.25999 8.4968 3.40306 8.43754 3.55225 8.43754H14.5702L10.464 4.33832C10.3743 4.22903 10.3284 4.09028 10.3354 3.94906C10.3423 3.80785 10.4015 3.67426 10.5015 3.57428C10.6015 3.47431 10.7351 3.41509 10.8763 3.40816C11.0175 3.40122 11.1562 3.44706 11.2655 3.53676L16.328 8.59926C16.4337 8.7059 16.4929 8.84994 16.4929 9.00004C16.4929 9.15014 16.4337 9.29417 16.328 9.40082V9.40082Z" fill="white"/>
</g>
<defs>
<clipPath id="clip0_103_579">
<rect width="18" height="18" fill="white" transform="translate(0.739746)"/>
</clipPath>
</defs>
</svg>
