<svg width="33" height="32" viewBox="0 0 33 32" fill="none" xmlns="http://www.w3.org/2000/svg">
<g clip-path="url(#clip0_107_464)">
<path d="M16.5 3C13.0522 3 9.74558 4.36964 7.30761 6.80761C4.86964 9.24558 3.5 12.5522 3.5 16C3.5 19.4478 4.86964 22.7544 7.30761 25.1924C9.74558 27.6304 13.0522 29 16.5 29C17.7968 29.0036 19.0866 28.8097 20.325 28.425C20.484 28.3839 20.6275 28.297 20.7375 28.175L28.675 20.2375C28.7943 20.1253 28.8808 19.9827 28.925 19.825C29.3097 18.5866 29.5036 17.2968 29.5 16C29.4934 12.5542 28.1216 9.25145 25.6851 6.81491C23.2485 4.37837 19.9458 3.00661 16.5 3V3ZM27.0875 19L19.5 26.5875C17.1601 27.2483 14.6672 27.1144 12.4116 26.2067C10.156 25.299 8.2652 23.6687 7.03536 21.5713C5.80553 19.4739 5.30612 17.0278 5.61536 14.6161C5.92461 12.2045 7.02504 9.96354 8.74429 8.24429C10.4635 6.52504 12.7045 5.42461 15.1161 5.11536C17.5278 4.80612 19.9739 5.30553 22.0713 6.53536C24.1687 7.7652 25.799 9.656 26.7067 11.9116C27.6144 14.1672 27.7483 16.6601 27.0875 19V19ZM10.5 13.5C10.5 13.2033 10.588 12.9133 10.7528 12.6666C10.9176 12.42 11.1519 12.2277 11.426 12.1142C11.7001 12.0006 12.0017 11.9709 12.2926 12.0288C12.5836 12.0867 12.8509 12.2296 13.0607 12.4393C13.2704 12.6491 13.4133 12.9164 13.4712 13.2074C13.5291 13.4983 13.4994 13.7999 13.3858 14.074C13.2723 14.3481 13.08 14.5824 12.8334 14.7472C12.5867 14.912 12.2967 15 12 15C11.6022 15 11.2206 14.842 10.9393 14.5607C10.658 14.2794 10.5 13.8978 10.5 13.5ZM19.5 13.5C19.5 13.2033 19.588 12.9133 19.7528 12.6666C19.9176 12.42 20.1519 12.2277 20.426 12.1142C20.7001 12.0006 21.0017 11.9709 21.2926 12.0288C21.5836 12.0867 21.8509 12.2296 22.0607 12.4393C22.2704 12.6491 22.4133 12.9164 22.4712 13.2074C22.5291 13.4983 22.4993 13.7999 22.3858 14.074C22.2723 14.3481 22.08 14.5824 21.8334 14.7472C21.5867 14.912 21.2967 15 21 15C20.6022 15 20.2206 14.842 19.9393 14.5607C19.658 14.2794 19.5 13.8978 19.5 13.5ZM22.5625 19.5C21.9482 20.5643 21.0645 21.4481 20.0003 22.0626C18.9361 22.6771 17.7289 23.0006 16.5 23.0006C15.2711 23.0006 14.0639 22.6771 12.9997 22.0626C11.9355 21.4481 11.0518 20.5643 10.4375 19.5C10.3592 19.3865 10.3053 19.258 10.2791 19.1226C10.2529 18.9872 10.2549 18.8478 10.2852 18.7133C10.3154 18.5788 10.3731 18.4519 10.4547 18.3407C10.5363 18.2296 10.64 18.1365 10.7593 18.0673C10.8786 17.9982 11.0109 17.9544 11.148 17.9389C11.285 17.9233 11.4237 17.9362 11.5555 17.9769C11.6873 18.0175 11.8092 18.0849 11.9137 18.175C12.0182 18.265 12.1029 18.3757 12.1625 18.5C12.6029 19.2604 13.2355 19.8916 13.9967 20.3305C14.758 20.7693 15.6213 21.0003 16.5 21.0003C17.3787 21.0003 18.242 20.7693 19.0033 20.3305C19.7645 19.8916 20.3971 19.2604 20.8375 18.5C20.9804 18.2928 21.1961 18.147 21.4417 18.0918C21.6873 18.0367 21.9446 18.0762 22.1624 18.2024C22.3801 18.3286 22.5423 18.5323 22.6165 18.7729C22.6906 19.0134 22.6714 19.2731 22.5625 19.5Z" fill="white"/>
</g>
<defs>
<clipPath id="clip0_107_464">
<rect width="32" height="32" fill="white" transform="translate(0.5)"/>
</clipPath>
</defs>
</svg>
