<svg width="33" height="32" viewBox="0 0 33 32" fill="none" xmlns="http://www.w3.org/2000/svg">
<g clip-path="url(#clip0_107_463)">
<path d="M16.5 14C15.6617 14.0033 14.8524 14.3073 14.2193 14.8568C13.5862 15.4063 13.1714 16.1649 13.0503 16.9944C12.9292 17.8239 13.1098 18.6694 13.5594 19.3769C14.009 20.0845 14.6976 20.6072 15.5 20.85V23C15.5 23.2652 15.6054 23.5196 15.7929 23.7071C15.9804 23.8946 16.2348 24 16.5 24C16.7652 24 17.0196 23.8946 17.2071 23.7071C17.3946 23.5196 17.5 23.2652 17.5 23V20.85C18.3024 20.6072 18.991 20.0845 19.4406 19.3769C19.8902 18.6694 20.0708 17.8239 19.9497 16.9944C19.8286 16.1649 19.4138 15.4063 18.7807 14.8568C18.1476 14.3073 17.3383 14.0033 16.5 14V14ZM16.5 19C16.2033 19 15.9133 18.912 15.6666 18.7472C15.42 18.5824 15.2277 18.3481 15.1142 18.074C15.0006 17.7999 14.9709 17.4983 15.0288 17.2074C15.0867 16.9164 15.2296 16.6491 15.4393 16.4393C15.6491 16.2296 15.9164 16.0867 16.2074 16.0288C16.4983 15.9709 16.7999 16.0007 17.074 16.1142C17.3481 16.2277 17.5824 16.42 17.7472 16.6666C17.912 16.9133 18 17.2033 18 17.5C18 17.8978 17.842 18.2794 17.5607 18.5607C17.2794 18.842 16.8978 19 16.5 19ZM26.5 10H22V6.5C22 5.04131 21.4205 3.64236 20.3891 2.61091C19.3576 1.57946 17.9587 1 16.5 1C15.0413 1 13.6424 1.57946 12.6109 2.61091C11.5795 3.64236 11 5.04131 11 6.5V10H6.5C5.96957 10 5.46086 10.2107 5.08579 10.5858C4.71071 10.9609 4.5 11.4696 4.5 12V26C4.5 26.5304 4.71071 27.0391 5.08579 27.4142C5.46086 27.7893 5.96957 28 6.5 28H26.5C27.0304 28 27.5391 27.7893 27.9142 27.4142C28.2893 27.0391 28.5 26.5304 28.5 26V12C28.5 11.4696 28.2893 10.9609 27.9142 10.5858C27.5391 10.2107 27.0304 10 26.5 10ZM13 6.5C13 5.57174 13.3687 4.6815 14.0251 4.02513C14.6815 3.36875 15.5717 3 16.5 3C17.4283 3 18.3185 3.36875 18.9749 4.02513C19.6313 4.6815 20 5.57174 20 6.5V10H13V6.5ZM26.5 26H6.5V12H26.5V26Z" fill="white"/>
</g>
<defs>
<clipPath id="clip0_107_463">
<rect width="32" height="32" fill="white" transform="translate(0.5)"/>
</clipPath>
</defs>
</svg>
