<svg width="18" height="18" viewBox="0 0 18 18" fill="none" xmlns="http://www.w3.org/2000/svg">
<g clip-path="url(#clip0_108_504)">
<path d="M15.5883 9.40082L10.5258 14.4633C10.4183 14.5673 10.2746 14.6254 10.125 14.6254C9.97544 14.6254 9.83174 14.5673 9.72422 14.4633C9.61859 14.3567 9.55934 14.2126 9.55934 14.0625C9.55934 13.9124 9.61859 13.7684 9.72422 13.6618L13.8305 9.56254H2.8125C2.66332 9.56254 2.52024 9.50328 2.41475 9.39779C2.30926 9.2923 2.25 9.14922 2.25 9.00004C2.25 8.85086 2.30926 8.70778 2.41475 8.60229C2.52024 8.4968 2.66332 8.43754 2.8125 8.43754H13.8305L9.72422 4.33832C9.63452 4.22903 9.58868 4.09028 9.59562 3.94906C9.60255 3.80785 9.66177 3.67426 9.76174 3.57428C9.86172 3.47431 9.99531 3.41509 10.1365 3.40816C10.2777 3.40122 10.4165 3.44706 10.5258 3.53676L15.5883 8.59926C15.6939 8.7059 15.7532 8.84994 15.7532 9.00004C15.7532 9.15014 15.6939 9.29417 15.5883 9.40082V9.40082Z" fill="white"/>
</g>
<defs>
<clipPath id="clip0_108_504">
<rect width="18" height="18" fill="white"/>
</clipPath>
</defs>
</svg>
